<?xml version="1.0" encoding="UTF-8" standalone="no"?>
<!-- Created with Inkscape (http://www.inkscape.org/) -->

<svg
   width="150mm"
   height="150mm"
   viewBox="0 0 150 150"
   version="1.1"
   id="svg1"
   xml:space="preserve"
   xmlns="http://www.w3.org/2000/svg"
   xmlns:svg="http://www.w3.org/2000/svg"><defs
     id="defs1" /><g
     id="layer1"
     transform="translate(-0.12937161,-0.09119053)"><g
       id="g1"
       transform="matrix(0.97066092,0,0,0.99922799,-25.577202,-92.532263)"><path
         style="fill:#fdfdfd"
         d="m 33.242069,157.07995 7.360595,-55.78822 61.676696,-1.10409 64.98897,4.04832 4.78439,78.23804 -4.78439,51.37187 -63.51685,0.36803 -66.461084,-3.6803 z M 159.5703,242.55269 c 8.10561,-1.23101 15.17022,-6.38952 18.81177,-13.73617 0.9785,-1.97407 1.65617,-3.95651 2.21596,-6.48249 l 0.41943,-1.8926 V 167.6196 114.79777 l -0.43348,-1.96155 c -0.58942,-2.66724 -1.00425,-3.86254 -2.18289,-6.28985 -3.32095,-6.839242 -9.74562,-11.900236 -17.14499,-13.505866 -1.52742,-0.331442 -3.86151,-0.345489 -57.41096,-0.345489 -52.681361,0 -55.905061,0.01862 -57.353208,0.331283 -8.843371,1.909324 -15.837839,8.136182 -18.68005,16.630012 -1.436136,4.29183 -1.326375,-0.51253 -1.326375,58.05694 0,49.88738 0.01609,52.43734 0.341529,54.13213 0.726281,3.78225 2.238767,7.47316 4.261325,10.3989 3.64436,5.27175 9.593967,9.08781 15.90775,10.20317 1.884159,0.33285 4.25235,0.34803 56.380749,0.36147 46.51242,0.012 54.67238,-0.0252 56.19344,-0.25623 z M 55.518782,222.33109 c -1.121656,-0.49852 -1.779459,-1.58395 -1.779459,-2.93625 0,-0.60805 0.04059,-0.78528 0.771853,-1.5786 l 0.771853,-0.83736 37.737209,-0.0482 37.737212,-0.0482 0.35806,-0.4422 c 0.34214,-0.42253 0.35807,-0.8693 0.35807,-10.04405 v -9.60185 l 0.79607,-0.13289 c 2.2329,-0.37274 4.21291,-0.65788 4.58913,-0.66088 l 0.42145,-0.003 -0.004,11.84745 c -0.004,11.11783 -0.0254,11.89359 -0.34991,12.5967 -0.41851,0.90677 -1.01149,1.47744 -1.93708,1.86417 -0.61894,0.25861 -4.91596,0.28912 -39.801131,0.28258 -32.171872,-0.006 -39.206938,-0.0516 -39.669217,-0.25709 z m 14.021574,-11.90925 c -0.516613,-0.20848 -1.003428,-0.90595 -1.003428,-1.43764 0,-0.813 0.744528,-1.33306 2.903328,-2.02803 2.00906,-0.64676 5.393224,-2.20247 6.217895,-2.85838 0.399397,-0.31766 0.403527,-0.35945 0.14341,-1.45095 -0.745751,-3.12931 3.56e-4,-7.22093 2.066454,-11.33234 2.53842,-5.05131 6.436334,-9.05766 9.218408,-9.47485 1.612386,-0.2418 3.347304,0.8992 3.789732,2.49238 0.585538,2.1085 -0.162984,5.57688 -2.071717,9.59957 -1.40569,2.96252 -3.135348,5.42144 -5.532896,7.86569 -1.158523,1.18108 -2.06552,2.18831 -2.015549,2.23828 0.214894,0.2149 2.28923,-0.4026 3.239191,-0.96426 0.619741,-0.36641 2.804034,-2.3413 5.446124,-4.92402 5.573768,-5.44851 7.217119,-6.64548 9.123722,-6.64548 1.43913,0 2.7354,1.06303 3.34503,2.74315 0.99833,2.75136 1.59935,3.62544 2.49291,3.62544 0.77918,0 2.83964,-0.74608 5.5756,-2.01888 1.32987,-0.61868 3.0383,-1.34624 3.79651,-1.61681 5.05425,-1.80362 12.87007,-3.43186 19.44538,-4.05099 1.86165,-0.1753 2.3765,-0.1685 2.80531,0.037 0.95402,0.45725 1.0733,1.91735 0.20315,2.4867 -0.23878,0.15624 -1.5445,0.40315 -3.04083,0.57501 -6.31164,0.72495 -13.91339,2.30531 -18.10225,3.76335 -1.03349,0.35974 -3.24144,1.26991 -4.90656,2.0226 -4.6535,2.10355 -5.9215,2.42071 -7.65885,1.91564 -1.68416,-0.48959 -2.62524,-1.64296 -3.22764,-3.95575 -0.29466,-1.13127 -0.72128,-1.78025 -1.17028,-1.78025 -0.77441,0 -2.334968,1.29007 -7.389125,6.1084 -2.851008,2.71799 -5.127492,4.3716 -7.186068,5.2199 -1.771401,0.72995 -4.071844,0.78812 -5.299688,0.13401 l -0.807446,-0.43015 -1.162006,0.73387 c -1.934481,1.22173 -3.46964,1.92086 -6.097987,2.77706 -2.745661,0.89442 -2.572536,0.85965 -3.139834,0.63071 z m 13.640227,-11.01653 c 1.075494,-1.11321 2.423884,-2.73579 2.996423,-3.60575 2.18734,-3.3236 3.600532,-6.88068 3.490308,-8.7853 -0.102836,-1.77694 -0.957034,-1.76471 -2.895341,0.0414 -3.178433,2.96171 -5.691262,7.67772 -5.993022,11.24754 -0.122613,1.4505 0.03542,3.12609 0.294838,3.12609 0.08324,0 1.0313,-0.91081 2.106794,-2.02401 z M 56.24175,206.7676 c -1.156754,-0.835 -1.29834,-2.7487 -1.439171,-2.90324 -0.49828,-0.54675 -4.809485,-11.774 -4.809485,-12.52487 0,-1.6184 1.668258,-2.91553 3.587432,-2.78936 1.538604,0.10115 2.210241,0.67592 2.950184,2.52466 1.030754,2.57533 1.368135,3.13668 1.923816,3.20091 0.685903,0.0793 0.850491,-0.15372 8.310165,-11.76484 9.746502,-15.17061 11.245923,-17.2699 12.893508,-18.05173 1.231718,-0.58449 2.319268,-0.29939 3.06195,0.80268 0.813855,1.20768 0.531533,2.23922 -1.773128,6.47864 -4.072672,7.49167 -13.942227,24.42547 -16.866929,28.93962 -1.34709,2.07917 -4.401415,6.27418 -4.679424,6.42703 -0.07461,0.041 -2.002165,0.49549 -3.158918,-0.3395 z m -8.304968,-55.65539 c 0.0039,-33.7363 0.01832,-35.22186 0.347969,-35.94757 0.366714,-0.80732 1.287143,-1.69168 2.072407,-1.9912 0.306388,-0.11686 15.550644,-0.17635 42.328319,-0.16516 l 41.849483,0.0175 0.75556,0.41773 c 0.41555,0.22974 1.01217,0.78309 1.3258,1.22965 l 0.57026,0.81192 0.0546,7.85123 c 0.03,4.31818 0.03,7.85032 0,7.8492 -0.03,-0.001 -0.46834,-0.12755 -0.97406,-0.28097 -1.17189,-0.3555 -2.60846,-0.3555 -3.78035,0 -0.50572,0.15342 -0.94057,0.27986 -0.96632,0.28097 -0.0258,0.001 -0.0468,-2.61097 -0.0468,-5.80463 0,-5.5569 -0.0161,-5.82276 -0.37463,-6.18127 -0.37216,-0.37217 -0.62437,-0.37463 -38.478905,-0.37463 H 54.515759 l -0.388218,0.49354 -0.388218,0.49354 v 32.005 32.005 h -0.660269 c -0.363149,0 -1.114836,0.15977 -1.670417,0.35504 -0.87807,0.30861 -1.465482,0.66005 -3.123451,1.86871 -0.344814,0.25138 -0.352428,-0.512 -0.348404,-34.93358 z m 99.886248,33.93181 c -0.83002,-0.36089 -0.92456,-0.93184 -0.54263,-3.27677 0.17669,-1.08482 0.65501,-4.07966 1.06294,-6.65519 0.40792,-2.57554 0.7972,-4.93566 0.86506,-5.24472 0.0899,-0.40923 0.51648,1.41879 1.56984,6.72646 1.5832,7.97741 1.59336,8.14776 0.50881,8.52583 -0.80373,0.28018 -2.74308,0.23785 -3.46402,-0.0756 z m -18.40988,-11.6187 c -4.95154,-0.677 -9.16021,-2.26096 -11.36739,-4.2782 -1.76442,-1.61258 -1.75817,-1.58536 -1.7006,-7.40811 l 0.0498,-5.0408 8.2417,3.76 c 8.8399,4.0329 9.42609,4.22819 11.07835,3.69059 0.39725,-0.12926 3.29312,-1.36742 6.43527,-2.75147 3.14215,-1.38406 5.81836,-2.56116 5.94714,-2.61579 0.17741,-0.0753 0.23414,0.31279 0.23414,1.60172 0,1.69278 -0.003,1.70241 -0.55057,1.98574 -1.26186,0.65253 -1.52711,2.07523 -0.5866,3.1464 l 0.54863,0.62486 -0.36275,2.1445 c -0.19952,1.17948 -0.39462,2.23166 -0.43357,2.33817 -0.14724,0.40269 -3.09722,1.65354 -5.08706,2.15702 -3.67947,0.931 -8.52129,1.18205 -12.44654,0.64537 z m 21.58976,-6.02754 c -0.21397,-1.24913 -0.21319,-1.25348 0.33657,-1.87963 0.77382,-0.88133 0.76441,-1.87087 -0.0253,-2.66059 -0.31699,-0.31698 -0.65415,-0.57634 -0.74924,-0.57634 -0.0963,0 -0.17259,-1.0167 -0.1722,-2.29456 l 7e-4,-2.29457 0.79537,-0.32128 c 0.43745,-0.17671 0.94288,-0.37538 1.12317,-0.4415 0.30689,-0.11254 0.32779,0.19203 0.32779,4.77595 0,3.8676 -0.0569,5.02278 -0.2708,5.4989 -0.25128,0.55932 -0.91294,1.44565 -1.07919,1.44565 -0.0398,0 -0.16892,-0.56341 -0.28687,-1.25203 z m -17.37525,-5.67875 c -0.30906,-0.0739 -2.73053,-1.11271 -5.38103,-2.30844 -2.6505,-1.19572 -7.83434,-3.49126 -11.51965,-5.1012 -11.47301,-5.01203 -10.72776,-4.62835 -10.72776,-5.52287 0,-1.06255 -1.03016,-0.55306 17.60728,-8.70808 9.73941,-4.26159 10.23118,-4.45653 10.94333,-4.33805 0.56234,0.0936 14.64876,6.11509 23.22571,9.92832 4.57554,2.03424 5.14751,2.42939 4.90648,3.38972 -0.0876,0.34914 -0.41985,0.63408 -1.19509,1.02501 -1.59314,0.80336 -12.28088,5.51761 -12.49912,5.51323 -0.10336,-0.002 -2.81864,-1.29227 -6.03396,-2.86711 -5.18479,-2.53947 -5.8257,-2.90136 -5.66617,-3.19943 0.34727,-0.64888 0.19745,-1.31714 -0.43769,-1.95228 -1.03977,-1.03977 -3.0822,-1.34139 -4.55484,-0.67263 -2.04679,0.92949 -0.92173,3.19459 1.73419,3.49149 0.66307,0.0741 2.5426,0.89861 6.93677,3.04293 3.31499,1.6177 6.03276,2.98342 6.03948,3.03493 0.0197,0.15087 -11.63653,5.17485 -12.25406,5.28166 -0.30907,0.0535 -0.81481,0.0367 -1.12387,-0.0372 z M 63.082632,149.16816 c -0.464056,-0.27114 -0.784651,-1.22475 -0.651094,-1.93667 0.242511,-1.2927 -0.908424,-1.19969 16.71682,-1.35088 l 15.949806,-0.13682 0.486774,0.48678 c 0.676799,0.6768 0.690234,2.00317 0.02701,2.6664 l -0.459765,0.45976 -15.88316,-0.006 c -9.633393,-0.003 -16.002476,-0.0754 -16.186391,-0.18287 z m -0.227447,-9.51709 c -0.674928,-0.74578 -0.539424,-2.42427 0.228573,-2.83134 0.166158,-0.0881 10.767874,-0.2224 23.559368,-0.29851 l 23.257264,-0.13838 0.48446,0.48447 c 0.7054,0.7054 0.67774,1.83552 -0.0631,2.57632 l -0.54752,0.54753 H 86.468612 c -22.278844,0 -23.319214,-0.015 -23.613427,-0.34009 z m -0.01023,-9.37688 c -0.76098,-0.84087 -0.439584,-2.72227 0.497488,-2.91221 0.229925,-0.0466 13.497807,-0.13348 29.484185,-0.19305 l 29.066142,-0.10831 0.52907,0.45508 c 0.44015,0.37861 0.52907,0.6022 0.52907,1.33043 0,0.72684 -0.0892,0.95202 -0.52556,1.32739 l -0.52555,0.45207 H 92.53138 c -28.483315,0 -29.378006,-0.0106 -29.686425,-0.3514 z"
         id="path2" /><path
         style="fill:#1f5681"
         d="m 46.996111,242.44745 c -6.313783,-1.11536 -12.26339,-4.93142 -15.90775,-10.20317 -2.022558,-2.92574 -3.535044,-6.61665 -4.261325,-10.3989 -0.325441,-1.69479 -0.341529,-4.24475 -0.341529,-54.13213 0,-49.50162 0.01828,-52.45556 0.335582,-54.22621 1.853376,-10.34247 9.461976,-18.256601 19.670843,-20.460742 1.448147,-0.312662 4.671847,-0.331283 57.353208,-0.331283 53.54945,0 55.88354,0.01405 57.41096,0.345489 7.39937,1.60563 13.82404,6.666624 17.14499,13.505866 1.17864,2.42731 1.59347,3.62261 2.18289,6.28985 l 0.43348,1.96155 v 52.82183 52.82183 l -0.41943,1.8926 c -1.17614,5.30719 -3.22815,9.21305 -6.74583,12.84019 -3.8837,4.00457 -8.80396,6.54652 -14.2819,7.37847 -1.52106,0.23101 -9.68102,0.26821 -56.19344,0.25623 -52.128399,-0.0134 -54.49659,-0.0286 -56.380749,-0.36147 z M 134.98913,222.3056 c 0.92559,-0.38673 1.51857,-0.9574 1.93708,-1.86417 0.3245,-0.70311 0.34605,-1.47887 0.34991,-12.5967 l 0.004,-11.84745 -0.42145,0.003 c -0.37622,0.003 -2.35623,0.28814 -4.58913,0.66088 l -0.79607,0.13289 v 9.60185 c 0,9.17475 -0.0159,9.62152 -0.35807,10.04405 l -0.35806,0.4422 -37.737212,0.0482 -37.737209,0.0482 -0.771853,0.83736 c -0.633162,0.6869 -0.771853,0.97055 -0.771853,1.5786 0,1.3523 0.657803,2.43773 1.779459,2.93625 0.462279,0.20546 7.497345,0.25106 39.669217,0.25709 34.885171,0.007 39.182191,-0.024 39.801131,-0.28258 z M 72.68019,209.79113 c 2.628347,-0.8562 4.163506,-1.55533 6.097987,-2.77706 l 1.162006,-0.73387 0.807446,0.43015 c 1.227844,0.65411 3.528287,0.59594 5.299688,-0.13401 2.058576,-0.8483 4.33506,-2.50191 7.186068,-5.2199 5.054157,-4.81833 6.614715,-6.1084 7.389125,-6.1084 0.449,0 0.87562,0.64898 1.17028,1.78025 0.6024,2.31279 1.54348,3.46616 3.22764,3.95575 1.73735,0.50507 3.00535,0.18791 7.65885,-1.91564 1.66512,-0.75269 3.87307,-1.66286 4.90656,-2.0226 4.18886,-1.45804 11.79061,-3.0384 18.10225,-3.76335 1.49633,-0.17186 2.80205,-0.41877 3.04083,-0.57501 0.87015,-0.56935 0.75087,-2.02945 -0.20315,-2.4867 -1.28935,-0.61797 -12.64229,1.13039 -18.61962,2.86744 -3.16962,0.92111 -4.65747,1.47464 -7.42758,2.76334 -2.73596,1.2728 -4.79642,2.01888 -5.5756,2.01888 -0.89356,0 -1.49458,-0.87408 -2.49291,-3.62544 -0.60963,-1.68012 -1.9059,-2.74315 -3.34503,-2.74315 -1.906603,0 -3.549954,1.19697 -9.123722,6.64548 -2.64209,2.58272 -4.826383,4.55761 -5.446124,4.92402 -0.949961,0.56166 -3.024297,1.17916 -3.239191,0.96426 -0.04997,-0.05 0.857026,-1.0572 2.015549,-2.23828 2.397548,-2.44425 4.127206,-4.90317 5.532896,-7.86569 1.908733,-4.02269 2.657255,-7.49107 2.071717,-9.59957 -0.442428,-1.59318 -2.177346,-2.73418 -3.789732,-2.49238 -2.782074,0.41719 -6.679988,4.42354 -9.218408,9.47485 -2.066098,4.11141 -2.812205,8.20303 -2.066454,11.33234 0.260117,1.0915 0.255987,1.13329 -0.14341,1.45095 -0.824671,0.65591 -4.208835,2.21162 -6.217895,2.85838 -2.1588,0.69497 -2.903328,1.21503 -2.903328,2.02803 0,0.70816 0.781138,1.53583 1.520902,1.6115 0.06383,0.007 1.243898,-0.35552 2.62236,-0.80457 z m 8.111872,-9.23123 c -0.58662,-3.91186 2.032076,-9.82556 5.979911,-13.50421 1.938307,-1.80614 2.792505,-1.81837 2.895341,-0.0414 0.110224,1.90462 -1.302968,5.4617 -3.490308,8.7853 -0.950384,1.44408 -4.744581,5.62976 -5.103217,5.62976 -0.08324,0 -0.21002,-0.39124 -0.281727,-0.86942 z m -19.681665,4.37343 c 2.904507,-3.87345 6.848156,-10.32013 14.346788,-23.45268 8.03396,-14.0701 8.30425,-14.67368 7.262964,-16.21884 -0.742682,-1.10207 -1.830232,-1.38717 -3.06195,-0.80268 -1.647585,0.78183 -3.147006,2.88112 -12.893508,18.05173 -7.459674,11.61112 -7.624262,11.84413 -8.310165,11.76484 -0.555681,-0.0642 -0.893062,-0.62558 -1.923816,-3.20091 -0.739943,-1.84874 -1.41158,-2.42351 -2.950184,-2.52466 -1.919174,-0.12617 -3.587432,1.17096 -3.587432,2.78936 0,0.75087 4.680506,11.79646 4.809485,12.52487 1.99344,3.46782 4.261157,3.78723 6.307818,1.06897 z M 49.518098,185.16046 c 1.035218,-0.73885 2.630425,-1.33842 3.560956,-1.33842 h 0.660269 v -32.005 -32.005 l 0.388218,-0.49354 0.388218,-0.49354 h 38.104286 c 37.854535,0 38.106745,0.002 38.478905,0.37463 0.35851,0.35851 0.37463,0.62437 0.37463,6.18127 0,3.19366 0.0211,5.80575 0.0468,5.80463 0.0257,-10e-4 0.4606,-0.12755 0.96632,-0.28097 1.17189,-0.3555 2.60846,-0.3555 3.78035,0 0.50572,0.15342 0.94405,0.27986 0.97406,0.28097 0.03,0.001 0.03,-3.53102 0,-7.8492 l -0.0546,-7.85123 -0.57026,-0.81192 c -0.31363,-0.44656 -0.91025,-0.99991 -1.3258,-1.22965 l -0.75556,-0.41773 -41.849483,-0.0175 c -26.777675,-0.0112 -42.021931,0.0483 -42.328319,0.16516 -0.785264,0.29952 -1.705693,1.18388 -2.072407,1.9912 -0.329645,0.72571 -0.344025,2.21127 -0.347969,35.94757 -0.004,34.42158 0.0036,35.18496 0.348404,34.93358 0.193885,-0.14134 0.748695,-0.53974 1.232912,-0.88533 z m 101.768952,-0.0408 c 1.08455,-0.37807 1.07439,-0.54842 -0.50881,-8.52583 -1.05336,-5.30767 -1.47998,-7.13569 -1.56984,-6.72646 -0.0679,0.30906 -0.45714,2.66918 -0.86506,5.24472 -0.40793,2.57553 -0.88625,5.57037 -1.06294,6.65519 -0.38193,2.34493 -0.28739,2.91588 0.54263,3.27677 0.72094,0.31346 2.66029,0.35579 3.46402,0.0756 z m -13.30669,-11.61415 c 2.5274,-0.28182 5.68226,-1.11877 7.4225,-1.9691 0.8102,-0.39588 1.50494,-0.80693 1.54389,-0.91345 0.0389,-0.10651 0.23405,-1.15869 0.43357,-2.33817 l 0.36275,-2.1445 -0.54863,-0.62486 c -0.94051,-1.07117 -0.67526,-2.49387 0.5866,-3.1464 0.5479,-0.28333 0.55057,-0.29296 0.55057,-1.98574 0,-1.28893 -0.0567,-1.67697 -0.23414,-1.60172 -0.12878,0.0546 -2.80499,1.23173 -5.94714,2.61579 -3.14215,1.38405 -6.03802,2.62221 -6.43527,2.75147 -1.65226,0.5376 -2.23845,0.34231 -11.07835,-3.69059 l -8.2417,-3.76 -0.0498,5.0408 c -0.0576,5.82275 -0.0638,5.79553 1.7006,7.40811 3.63645,3.32351 12.27582,5.21236 19.9346,4.35836 z m 13.74983,-5.27712 c 0.85583,-0.98017 0.90958,-1.36567 0.90958,-6.5231 0,-4.58392 -0.0209,-4.88849 -0.32779,-4.77595 -0.18029,0.0661 -0.68572,0.26479 -1.12317,0.4415 l -0.79537,0.32128 -7e-4,2.29457 c -3.9e-4,1.27786 0.0759,2.29456 0.1722,2.29456 0.0951,0 0.43225,0.25936 0.74924,0.57634 0.78971,0.78972 0.79912,1.77926 0.0253,2.66059 -0.54976,0.62615 -0.55054,0.6305 -0.33657,1.87963 0.11795,0.68862 0.24705,1.25203 0.28687,1.25203 0.0398,0 0.23801,-0.18965 0.44041,-0.42145 z m -10.56455,-9.11473 c 3.21869,-1.39997 5.84667,-2.58755 5.83995,-2.63906 -0.007,-0.0515 -2.72449,-1.41723 -6.03948,-3.03493 -4.39417,-2.14432 -6.2737,-2.96881 -6.93677,-3.04293 -2.65592,-0.2969 -3.78098,-2.562 -1.73419,-3.49149 2.52951,-1.1487 6.02776,0.69056 4.99253,2.62491 -0.15953,0.29807 0.48138,0.65996 5.66617,3.19943 3.21532,1.57484 5.9306,2.86504 6.03396,2.86711 0.21824,0.004 10.90598,-4.70987 12.49912,-5.51323 0.77524,-0.39093 1.10746,-0.67587 1.19509,-1.02501 0.24103,-0.96033 -0.33094,-1.35548 -4.90648,-3.38972 -8.57695,-3.81323 -22.66337,-9.83477 -23.22571,-9.92832 -0.71215,-0.11848 -1.20392,0.0765 -10.94333,4.33805 -14.99711,6.56215 -16.95645,7.44883 -17.27949,7.81965 -0.18028,0.20695 -0.32779,0.60674 -0.32779,0.88843 0,0.89452 -0.74525,0.51084 10.72776,5.52287 3.68531,1.60994 8.86915,3.90548 11.51965,5.1012 5.14497,2.32106 5.63188,2.49664 6.5049,2.34564 0.30906,-0.0535 3.19541,-1.24263 6.41411,-2.6426 z M 95.611948,148.89697 c 0.663224,-0.66323 0.649789,-1.9896 -0.02701,-2.6664 l -0.486774,-0.48678 -15.949806,0.13682 c -17.625244,0.15119 -16.474309,0.0582 -16.71682,1.35088 -0.133557,0.71192 0.187038,1.66553 0.651094,1.93667 0.183915,0.10746 6.552998,0.17942 16.186391,0.18287 l 15.88316,0.006 z m 14.709842,-9.45334 c 0.7408,-0.7408 0.76846,-1.87092 0.0631,-2.57632 l -0.48446,-0.48447 -23.257264,0.13838 c -12.791494,0.0761 -23.39321,0.21044 -23.559368,0.29851 -0.767997,0.40707 -0.903501,2.08556 -0.228573,2.83134 0.294213,0.3251 1.334583,0.34009 23.613427,0.34009 h 23.305658 z m 12.10356,-9.27011 c 0.4364,-0.37537 0.52556,-0.60055 0.52556,-1.32739 0,-0.72823 -0.0889,-0.95182 -0.52907,-1.33043 l -0.52907,-0.45508 -29.066143,0.10831 c -15.986378,0.0596 -29.25426,0.14645 -29.484185,0.19305 -0.937072,0.18994 -1.258468,2.07134 -0.497488,2.91221 0.30842,0.3408 1.203111,0.3514 29.686426,0.3514 h 29.36842 z"
         id="path1" /></g></g></svg>
